<svg width="12" height="9" viewBox="0 0 12 9" fill="none" xmlns="http://www.w3.org/2000/svg">
<path d="M0.63847 1.09805C0.56899 1.17667 0.513866 1.27007 0.476254 1.37289C0.438641 1.47571 0.419281 1.58595 0.419281 1.69727C0.419281 1.8086 0.438641 1.91883 0.476254 2.02165C0.513866 2.12448 0.56899 2.21787 0.63847 2.29649L5.59841 7.92308C5.65363 7.98585 5.71922 8.03565 5.79142 8.06963C5.86363 8.1036 5.94103 8.12109 6.0192 8.12109C6.09737 8.12109 6.17478 8.1036 6.24698 8.06963C6.31918 8.03565 6.38477 7.98585 6.43999 7.92308L11.3999 2.29649C11.6924 1.96472 11.6924 1.42982 11.3999 1.09805C11.1075 0.766278 10.8004 1.04112 10.5079 1.37289L7.9079 4.3364L5.99993 6.42412L1.19995 1.09079C1.19995 1.09079 0.924965 0.766278 0.63847 1.09805Z" fill="black"/>
</svg>
