<svg width="24" height="24" viewBox="0 0 24 24" fill="none" xmlns="http://www.w3.org/2000/svg">
<path d="M17.2802 2.40088C18.4252 2.40341 19.5225 2.85937 20.3321 3.66898C21.1417 4.47858 21.5977 5.57592 21.6002 6.72088V17.2809C21.5977 18.4258 21.1417 19.5232 20.3321 20.3328C19.5225 21.1424 18.4252 21.5983 17.2802 21.6009H6.7202C5.57691 21.5958 4.48204 21.1387 3.6745 20.3294C2.86696 19.5201 2.41233 18.4242 2.4098 17.2809V6.72088C2.41233 5.57758 2.86696 4.48169 3.6745 3.67235C4.48204 2.86302 5.57691 2.40594 6.7202 2.40088H17.2802ZM17.2802 0.960876H6.7202C5.19256 0.960876 3.72748 1.56773 2.64727 2.64794C1.56706 3.72815 0.960205 5.19323 0.960205 6.72088L0.960205 17.2809C0.960205 18.8085 1.56706 20.2736 2.64727 21.3538C3.72748 22.434 5.19256 23.0409 6.7202 23.0409H17.2802C18.8078 23.0409 20.2729 22.434 21.3531 21.3538C22.4333 20.2736 23.0402 18.8085 23.0402 17.2809V6.72088C23.0402 5.19323 22.4333 3.72815 21.3531 2.64794C20.2729 1.56773 18.8078 0.960876 17.2802 0.960876V0.960876Z" fill="#192144"/>
<path d="M12.0093 7.75648C12.8504 7.75648 13.6727 8.0059 14.372 8.4732C15.0714 8.94051 15.6165 9.6047 15.9384 10.3818C16.2603 11.1589 16.3445 12.014 16.1804 12.839C16.0163 13.6639 15.6112 14.4217 15.0165 15.0165C14.4217 15.6112 13.6639 16.0163 12.839 16.1804C12.014 16.3445 11.1589 16.2602 10.3818 15.9384C9.60472 15.6165 8.94052 15.0714 8.47321 14.372C8.00591 13.6726 7.75649 12.8504 7.75649 12.0093C7.75522 11.4504 7.86436 10.8968 8.07764 10.3803C8.29091 9.86376 8.60412 9.39443 8.99928 8.99927C9.39444 8.60411 9.86377 8.2909 10.3803 8.07762C10.8969 7.86435 11.4504 7.75521 12.0093 7.75648ZM12.0093 6.31648C10.883 6.31458 9.78137 6.64684 8.84393 7.27122C7.90649 7.89559 7.17533 8.78402 6.74299 9.82408C6.31064 10.8641 6.19653 12.0091 6.4151 13.114C6.63368 14.2189 7.17511 15.2342 7.97088 16.0313C8.76664 16.8284 9.78099 17.3715 10.8855 17.592C11.9901 17.8124 13.1352 17.7002 14.176 17.2697C15.2168 16.8391 16.1065 16.1094 16.7324 15.173C17.3584 14.2366 17.6925 13.1356 17.6925 12.0093C17.6938 11.2621 17.5477 10.5221 17.2626 9.83146C16.9776 9.14084 16.5592 8.51319 16.0313 7.98444C15.5035 7.45569 14.8765 7.03621 14.1864 6.75C13.4962 6.46379 12.7564 6.31647 12.0093 6.31648Z" fill="#192144"/>
<path d="M17.9043 7.41252C18.6148 7.41252 19.1907 6.83658 19.1907 6.12612C19.1907 5.41566 18.6148 4.83972 17.9043 4.83972C17.1939 4.83972 16.6179 5.41566 16.6179 6.12612C16.6179 6.83658 17.1939 7.41252 17.9043 7.41252Z" fill="#192144"/>
</svg>
