<svg width="10" height="19" viewBox="0 0 10 19" fill="none" xmlns="http://www.w3.org/2000/svg">
<path d="M1.06949 18.3693C1.16815 18.481 1.28536 18.5695 1.41439 18.63C1.54343 18.6904 1.68176 18.7216 1.82146 18.7216C1.96117 18.7216 2.0995 18.6904 2.22853 18.63C2.35757 18.5695 2.47477 18.481 2.57344 18.3693L9.63433 10.398C9.7131 10.3092 9.77559 10.2038 9.81823 10.0878C9.86086 9.97171 9.88281 9.84732 9.88281 9.72169C9.88281 9.59605 9.86086 9.47166 9.81823 9.35561C9.77559 9.23957 9.7131 9.13416 9.63433 9.04542L2.57344 1.07408C2.15709 0.604052 1.48584 0.604052 1.06949 1.07408C0.653145 1.54411 1.32374 2.3591 1.74009 2.82913L7.82453 9.72169L1.41439 16.972C1.00654 17.4324 0.653145 17.9089 1.06949 18.3693Z" fill="black"/>
</svg>
