<svg width="16" height="17" viewBox="0 0 16 17" fill="none" xmlns="http://www.w3.org/2000/svg">
<path d="M11.0671 7.55663C11.0671 7.74225 11.2207 7.89413 11.4084 7.89413C11.5962 7.89413 11.7498 7.74225 11.7498 7.55663C11.7498 5.66326 10.1931 4.12426 8.27801 4.12426C8.09025 4.12426 7.93663 4.27614 7.93663 4.46176C7.93663 4.65076 8.09025 4.79926 8.27801 4.79926C9.81763 4.79926 11.0671 6.03788 11.0671 7.55663ZM8.27801 0C8.09025 0 7.93663 0.151879 7.93663 0.3375C7.93663 0.523142 8.09025 0.675 8.27801 0.675C12.1185 0.675 15.2422 3.76313 15.2422 7.55663C15.2422 7.74225 15.3924 7.89413 15.5835 7.89413C15.7713 7.89413 15.9249 7.74225 15.9249 7.55663C15.9249 3.38851 12.494 0 8.27801 0ZM11.6133 11.1139L11.1661 11.3535C10.4116 11.7619 9.82454 12.8813 8.89351 12.0375L6.46246 9.6L4.36239 7.55663C3.3073 6.2235 4.4887 5.90625 4.90176 5.15701L5.14415 4.71827C5.41724 4.21875 5.51624 3.65851 5.43431 3.09825C5.3558 2.53801 5.09976 2.02838 4.69011 1.62337C4.19171 1.13064 3.52943 0.860642 2.82277 0.860642C2.11611 0.860642 1.45042 1.13064 0.951998 1.62337L0.777912 1.79888C-0.143816 2.71014 -0.249642 4.2795 0.477497 6.2235C1.16365 8.07975 2.54625 10.0913 4.36239 11.8868C7.13098 14.6239 10.2136 16.2 12.4258 16.2C13.2997 16.2 14.0405 15.9536 14.5662 15.4339L14.7437 15.2584C15.2387 14.769 15.5153 14.1143 15.5187 13.4089C15.5153 12.7204 15.2319 12.0454 14.7437 11.5628C13.921 10.7494 12.634 10.5671 11.6133 11.1139Z" fill="#161C35"/>
</svg>
